<svg width="160" height="163" viewBox="0 0 160 163" fill="none" xmlns="http://www.w3.org/2000/svg">
<mask id="mask0_378_310" style="mask-type:luminance" maskUnits="userSpaceOnUse" x="-2" y="0" width="164" height="163">
<path d="M161.2 0H-1.19995V162.4H161.2V0Z" fill="white"/>
</mask>
<g mask="url(#mask0_378_310)">
<path d="M108.794 68.6893C106.777 64.9156 102.085 63.4972 98.3122 65.5139C95.9803 66.7601 87.9616 72.5454 82.6474 77.677C85.0081 70.6771 86.806 60.9545 86.9333 58.3137C87.1392 54.0403 83.8375 50.4074 79.5648 50.2008C75.2914 49.9949 71.6656 53.2895 71.4598 57.5622C71.3325 60.203 72.1826 70.0592 73.8598 77.2534C69.064 71.6334 61.6383 65.1017 59.4372 63.6368C55.8748 61.2671 51.0649 62.2329 48.6937 65.7936C46.324 69.3559 47.2897 74.1666 50.8505 76.537C54.4128 78.9067 75.5074 88.7792 77.8771 85.2169C79.8938 88.9899 101.846 81.1878 105.619 79.1712C109.392 77.1553 110.811 72.4616 108.794 68.6893Z" fill="#FFC23F"/>
<path d="M116.992 81.1555C116.606 76.5312 112.547 73.0916 107.923 73.4768C103.299 73.862 78.7259 79.6858 79.1103 84.3093C79.4955 88.9336 104.697 90.6082 109.321 90.2237C113.945 89.8385 117.377 85.7781 116.992 81.1555Z" fill="white"/>
<path d="M100.475 55.174C96.5405 52.7149 91.3571 53.9115 88.898 57.8459C86.4388 61.7803 76.3804 84.9542 80.3148 87.4133C84.2492 89.8725 100.68 70.685 103.139 66.7506C105.599 62.8163 104.409 57.6332 100.475 55.174Z" fill="white"/>
<path d="M63.6408 52.8357C59.4319 54.7867 57.5948 59.7838 59.5459 63.9927C61.4969 68.2016 75.4167 89.2819 79.6256 87.3316C83.8345 85.3806 76.7408 61.1389 74.7897 56.93C72.8396 52.7195 67.8513 50.8848 63.6408 52.8357Z" fill="white"/>
<path d="M42.8881 79.6927C42.2191 84.2843 45.4041 88.5452 49.9956 89.215C54.5872 89.884 79.8411 89.7653 80.5101 85.1737C81.1791 80.5821 57.01 73.256 52.4185 72.5862C47.8269 71.9172 43.5579 75.1012 42.8881 79.6927Z" fill="white"/>
<path d="M128.127 113.057C128.418 110.249 125.794 107.83 122.46 107.83C94.1525 107.83 65.8478 107.83 37.5406 107.83C34.2065 107.83 31.5911 110.249 31.881 113.057C33.0389 124.264 34.1984 135.471 35.3563 146.678C35.8695 151.642 40.7805 155.449 46.6756 155.449C68.8911 155.449 91.1091 155.449 113.325 155.449C119.22 155.449 124.139 151.642 124.652 146.678C125.81 135.471 126.969 124.264 128.127 113.057Z" fill="white"/>
<path d="M135.426 91.1269C135.962 86.5111 131.675 82.5085 126.202 82.51C96.0071 82.5186 65.8156 82.5271 35.621 82.5357C30.1474 82.5373 25.8711 86.5424 26.4095 91.1579C26.9015 95.3748 27.395 99.5918 27.887 103.809C28.3558 107.824 32.3409 110.882 37.103 110.881C66.3152 110.873 95.5313 110.864 124.744 110.856C129.506 110.855 133.489 107.794 133.956 103.779C134.445 99.5614 134.936 95.3442 135.426 91.1269Z" fill="#6A6A6C"/>
</g>
</svg>
