<svg width="156" height="43" viewBox="0 0 156 43" fill="none" xmlns="http://www.w3.org/2000/svg">
<g clip-path="url(#clip0_378_557)">
<mask id="mask0_378_557" style="mask-type:luminance" maskUnits="userSpaceOnUse" x="0" y="7" width="68" height="28">
<path d="M67.2 7.7998H0V34.5748H67.2V7.7998Z" fill="white"/>
</mask>
<g mask="url(#mask0_378_557)">
<path d="M47.6342 15.0257C49.4815 15.0257 50.9091 15.5296 52.0008 16.5373C53.0925 17.5449 53.5962 18.8885 53.5962 20.568V28.6294H51.245V26.7822H51.161C50.1534 28.2938 48.7258 29.0495 47.0463 29.0495C45.6187 29.0495 44.3591 28.6295 43.3515 27.7899C42.4277 26.9502 41.8399 25.7746 41.8399 24.515C41.8399 23.1713 42.3437 22.0796 43.3515 21.2399C44.3591 20.4001 45.7867 20.0643 47.4662 20.0643C48.9776 20.0643 50.1534 20.3163 51.077 20.904V20.3163C51.077 19.5324 50.7844 18.7488 50.1992 18.2381L50.0692 18.1329C49.3975 17.5451 48.5578 17.2092 47.6342 17.2092C46.2066 17.2092 45.1149 17.797 44.3591 18.9727L42.1759 17.6288C43.5193 15.8653 45.2828 15.0257 47.6342 15.0257ZM35.7938 9.31543C37.3006 9.31543 38.7325 9.83978 39.8774 10.8176L40.0765 10.9948C41.2521 12.0025 41.8399 13.5141 41.8399 15.1096C41.8399 16.7051 41.2521 18.1327 40.0765 19.2243C38.9009 20.3159 37.4733 20.9037 35.7938 20.9037L31.7631 20.8197V28.6294H29.2438V9.31543H35.7938ZM47.9699 22.0795C46.9622 22.0795 46.1226 22.3314 45.4508 22.8352C44.779 23.255 44.4431 23.8428 44.4431 24.5986C44.4431 25.2704 44.7791 25.8582 45.2828 26.1942C45.8707 26.614 46.5424 26.8659 47.2143 26.8659C48.1547 26.8659 49.0952 26.5001 49.8309 25.8369L49.9854 25.6903C50.8251 24.9346 51.245 24.0108 51.245 23.0031C50.4892 22.4154 49.3974 22.0795 47.9699 22.0795ZM35.962 11.6665H31.7633V18.3848H35.962C36.8856 18.3848 37.8093 18.0489 38.3972 17.3772C39.7407 16.1176 39.7407 14.0182 38.4812 12.7585L38.3972 12.6745C37.7253 12.0028 36.8858 11.5825 35.962 11.6665ZM67.2 15.4456L58.8866 34.5077H56.3674L59.4744 27.8738L54.0161 15.5296H56.7033L60.65 25.0186H60.734L64.5968 15.5296H67.2V15.4456Z" fill="#5F6368"/>
<path d="M21.7702 19.1407C21.7702 18.385 21.6862 17.6293 21.6022 16.8735H11.1057V21.1562H17.0678C16.8159 22.4997 16.0602 23.7593 14.8845 24.5152V27.2862H18.4954C20.5947 25.3549 21.7702 22.4995 21.7702 19.1407Z" fill="#4285F4"/>
<path d="M11.1056 29.973C14.1285 29.973 16.6477 28.9653 18.4952 27.2858L14.8844 24.5147C13.8767 25.1865 12.6171 25.6063 11.1056 25.6063C8.25037 25.6063 5.73116 23.675 4.89142 20.9878H1.19673V23.8429C3.12808 27.6217 6.90689 29.973 11.1056 29.973Z" fill="#34A853"/>
<path d="M4.89144 20.9879C4.3877 19.6443 4.3877 18.1328 4.89144 16.7052V13.8501H1.19675C-0.398856 16.9572 -0.398856 20.652 1.19675 23.8429L4.89144 20.9879Z" fill="#FBBC04"/>
<path d="M11.1056 12.171C12.7011 12.171 14.2125 12.7589 15.3883 13.8505L18.5792 10.6595C16.5638 8.81204 13.8767 7.72044 11.1895 7.80431C6.99077 7.80431 3.12808 10.1557 1.28061 13.9345L4.97543 16.7896C5.73117 14.1023 8.25038 12.171 11.1056 12.171Z" fill="#EA4335"/>
</g>
</g>
<g opacity="0.6">
<path d="M74.72 34.08L82.98 10H85.22L76.96 34.08H74.72Z" fill="white"/>
</g>
<g clip-path="url(#clip1_378_557)">
<mask id="mask1_378_557" style="mask-type:luminance" maskUnits="userSpaceOnUse" x="93" y="6" width="62" height="30">
<path d="M154.94 6.2998H93.2V35.6998H154.94V6.2998Z" fill="white"/>
</mask>
<g mask="url(#mask1_378_557)">
<path d="M104.873 11.5941C104.149 12.4527 102.992 13.128 101.834 13.0315C101.689 11.8739 102.259 10.6391 102.924 9.88665C103.648 9.00878 104.911 8.38174 105.944 8.3335C106.059 9.52971 105.587 10.7163 104.873 11.5941ZM105.924 13.2534C104.246 13.1569 102.808 14.2084 102.017 14.2084C101.207 14.2084 99.9915 13.3016 98.6602 13.3306C96.9334 13.3595 95.3321 14.3339 94.4542 15.887C92.6406 19.0029 93.9815 23.6045 95.7372 26.1416C96.5958 27.3957 97.6184 28.7752 98.9689 28.727C100.252 28.6788 100.754 27.8974 102.297 27.8974C103.85 27.8974 104.304 28.727 105.654 28.7077C107.053 28.6788 107.931 27.4536 108.789 26.1995C109.764 24.7718 110.169 23.3923 110.188 23.3151C110.159 23.2861 107.487 22.2636 107.458 19.1766C107.429 16.5912 109.571 15.3661 109.667 15.2889C108.461 13.4946 106.58 13.3016 105.924 13.2534ZM115.61 9.76124V28.563H118.533V22.1382H122.575C126.27 22.1382 128.855 19.601 128.855 15.9352C128.855 12.2694 126.308 9.76124 122.671 9.76124H115.61ZM118.533 12.2212H121.9C124.437 12.2212 125.884 13.5718 125.884 15.9449C125.884 18.318 124.437 19.6879 121.89 19.6879H118.533V12.2212ZM134.18 28.7077C136.013 28.7077 137.711 27.7816 138.482 26.3056H138.54V28.563H141.241V19.2055C141.241 16.4947 139.071 14.739 135.733 14.739C132.636 14.739 130.341 16.514 130.254 18.9451H132.887C133.109 17.7874 134.18 17.0253 135.646 17.0253C137.431 17.0253 138.434 17.855 138.434 19.3888V20.4307L134.788 20.6526C131.402 20.8551 129.569 22.2443 129.569 24.656C129.578 27.087 131.469 28.7077 134.18 28.7077ZM134.971 26.4793C133.418 26.4793 132.424 25.7268 132.424 24.5885C132.424 23.4019 133.379 22.717 135.203 22.6109L138.444 22.4083V23.4694C138.444 25.2252 136.949 26.4793 134.971 26.4793ZM144.859 33.6758C147.705 33.6758 149.046 32.5857 150.213 29.2962L155.336 14.9223H152.364L148.93 26.0259H148.872L145.438 14.9223H142.389L147.329 28.6112L147.059 29.4409C146.615 30.8493 145.891 31.3992 144.599 31.3992C144.367 31.3992 143.923 31.3702 143.74 31.3509V33.6083C143.914 33.6469 144.637 33.6758 144.859 33.6758Z" fill="white"/>
</g>
</g>
<defs>
<clipPath id="clip0_378_557">
<rect width="68" height="27" fill="white" transform="translate(0 7.7998)"/>
</clipPath>
<clipPath id="clip1_378_557">
<rect width="62" height="30" fill="white" transform="translate(93.2 6.2998)"/>
</clipPath>
</defs>
</svg>
