<svg width="420" height="265" viewBox="0 0 420 265" fill="none" xmlns="http://www.w3.org/2000/svg">
<rect width="420" height="265" rx="32" fill="url(#paint0_radial_378_477)"/>
<g clip-path="url(#clip0_378_477)">
<path d="M332.492 237.995C332.492 237.987 332.492 237.987 332.492 237.995C332.492 237.98 332.492 237.973 332.499 237.973C332.507 237.951 332.507 237.93 332.507 237.901C332.507 237.894 332.507 237.887 332.507 237.872C332.507 237.85 332.507 237.829 332.5 237.807C332.5 237.8 332.5 237.8 332.5 237.793L331.581 233.875C331.545 233.731 331.438 233.622 331.294 233.585L327.42 232.631C327.413 232.631 327.406 232.631 327.398 232.631C327.377 232.624 327.362 232.624 327.341 232.624C327.334 232.624 327.319 232.623 327.312 232.623C327.29 232.623 327.269 232.63 327.24 232.63C327.233 232.63 327.225 232.63 327.218 232.63L327.211 232.63C327.182 232.637 327.16 232.652 327.132 232.666C327.124 232.666 327.124 232.673 327.117 232.673C327.095 232.687 327.074 232.702 327.059 232.716L327.052 232.723L322.34 237.258C322.296 237.272 322.253 237.3 322.224 237.329C322.188 237.365 322.159 237.408 322.144 237.451L320.458 239.08L319.535 235.854C319.535 235.847 319.528 235.832 319.521 235.825C319.514 235.811 319.514 235.804 319.506 235.796C319.485 235.753 319.463 235.717 319.428 235.688C319.392 235.659 319.356 235.637 319.313 235.615C319.305 235.608 319.291 235.608 319.284 235.601C319.277 235.601 319.262 235.593 319.255 235.586L316.123 234.815L322.783 228.243L321.794 223.82L317.524 222.842L306.115 234.108L307.054 238.379L310.935 239.406L311.87 243.165C311.905 243.309 312.02 243.418 312.164 243.447L315.757 244.184L316.8 247.973C316.8 247.98 316.807 247.987 316.814 248.002C316.822 248.009 316.821 248.023 316.829 248.031C316.85 248.067 316.871 248.11 316.9 248.139L316.9 248.146C316.929 248.175 316.972 248.204 317.015 248.219C317.03 248.226 317.037 248.226 317.051 248.233C317.058 248.24 317.073 248.241 317.08 248.248L320.881 249.238C320.91 249.245 320.946 249.252 320.975 249.252C321.011 249.253 321.04 249.246 321.069 249.239C321.076 249.238 321.076 249.238 321.083 249.239C321.09 249.239 321.097 249.231 321.097 249.231C321.112 249.224 321.126 249.224 321.134 249.217C321.148 249.21 321.155 249.203 321.17 249.203C321.177 249.196 321.191 249.189 321.199 249.181C321.206 249.174 321.22 249.167 321.227 249.16C321.235 249.153 321.235 249.153 321.242 249.146L332.383 238.174L332.39 238.167C332.405 238.153 332.419 238.131 332.434 238.11C332.434 238.102 332.441 238.102 332.441 238.095C332.47 238.045 332.485 238.016 332.492 237.995ZM327.429 241.951L326.7 238.964L328.539 237.141L331.396 238.04L327.429 241.951ZM321.167 248.122L320.351 245.264L323.703 241.942L326.503 242.869L321.167 248.122ZM316.628 244.426L319.263 245.245L317.373 247.118L316.628 244.426ZM322.299 238.389L323.085 241.463L319.878 244.642L316.797 243.684L322.299 238.389ZM327.141 233.725L327.994 236.598L326.184 238.392L323.269 237.456L327.141 233.725ZM326.679 242.113L324.318 241.332L326.063 239.602L326.679 242.113ZM323.722 240.832L323.049 238.198L325.568 239.002L323.722 240.832ZM319.721 245.881L320.417 248.306L317.926 247.661L319.721 245.881ZM331.594 237.306L328.744 236.407L327.899 233.541L330.887 234.275L331.594 237.306ZM316.288 243.105L315.602 240.226L316.673 239.114L319.56 239.955L316.288 243.105ZM316.736 237.932L315.976 235.572L318.431 236.174L316.736 237.932ZM317.282 238.482L318.983 236.709L319.693 239.178L317.282 238.482ZM316.128 238.564L315.056 239.676L312.011 238.884L315.211 235.727L316.128 238.564ZM312.596 228.796L313.399 231.502L310.032 234.868L307.275 234.048L312.596 228.796ZM318.155 226.745L316.389 228.517L313.545 227.863L317.447 224.017L318.155 226.745ZM317.749 232.134L317.014 228.981L318.686 227.309L321.637 228.295L317.749 232.134ZM314.021 230.885L313.347 228.612L315.744 229.163L314.021 230.885ZM316.37 229.62L316.971 232.21L314.574 231.421L316.37 229.62ZM309.941 236.05L310.686 238.539L308.131 237.865L309.941 236.05ZM310.563 235.432L313.959 232.038L316.873 233.003L311.444 238.363L310.563 235.432ZM321.835 227.539L318.906 226.561L318.176 223.782L321.142 224.466L321.835 227.539ZM307.056 234.79L309.41 235.492L307.607 237.293L307.056 234.79ZM312.556 242.735L311.784 239.625L314.851 240.425L315.552 243.347L312.556 242.735Z" fill="#D9D9D9"/>
</g>
<path d="M346.127 242V229.832H355.15V231.89H348.584V234.588H354.693V236.638H348.584V239.95H355.382V242H346.127ZM361.492 233.185V235.044H359.898V238.597C359.898 239.317 359.912 239.737 359.939 239.859C359.972 239.975 360.042 240.072 360.147 240.149C360.257 240.227 360.39 240.266 360.545 240.266C360.761 240.266 361.074 240.191 361.483 240.042L361.682 241.851C361.14 242.083 360.526 242.2 359.84 242.2C359.419 242.2 359.04 242.131 358.702 241.992C358.365 241.848 358.116 241.666 357.955 241.444C357.8 241.217 357.693 240.913 357.632 240.531C357.582 240.26 357.557 239.712 357.557 238.888V235.044H356.486V233.185H357.557V231.434L359.898 230.072V233.185H361.492ZM365.434 229.832V234.306C366.187 233.426 367.086 232.986 368.132 232.986C368.669 232.986 369.153 233.085 369.585 233.285C370.016 233.484 370.34 233.738 370.556 234.048C370.777 234.358 370.927 234.701 371.004 235.078C371.087 235.454 371.129 236.038 371.129 236.829V242H368.796V237.344C368.796 236.42 368.752 235.833 368.663 235.584C368.575 235.335 368.417 235.139 368.19 234.995C367.969 234.845 367.689 234.771 367.352 234.771C366.964 234.771 366.619 234.865 366.314 235.053C366.01 235.241 365.786 235.526 365.642 235.908C365.504 236.284 365.434 236.843 365.434 237.584V242H363.102V229.832H365.434ZM378.608 239.195L380.932 239.585C380.633 240.437 380.16 241.087 379.513 241.536C378.871 241.978 378.065 242.2 377.097 242.2C375.564 242.2 374.43 241.699 373.694 240.697C373.113 239.895 372.822 238.882 372.822 237.659C372.822 236.198 373.204 235.056 373.968 234.231C374.731 233.401 375.697 232.986 376.865 232.986C378.176 232.986 379.211 233.42 379.969 234.289C380.727 235.152 381.09 236.478 381.056 238.265H375.213C375.229 238.957 375.417 239.496 375.777 239.884C376.137 240.266 376.585 240.457 377.122 240.457C377.487 240.457 377.794 240.357 378.043 240.158C378.292 239.958 378.48 239.638 378.608 239.195ZM378.741 236.837C378.724 236.162 378.55 235.65 378.218 235.302C377.886 234.948 377.482 234.771 377.006 234.771C376.497 234.771 376.076 234.956 375.744 235.327C375.412 235.697 375.249 236.201 375.254 236.837H378.741ZM385.199 242H382.866V233.185H385.033V234.438C385.403 233.846 385.735 233.456 386.029 233.268C386.327 233.08 386.665 232.986 387.041 232.986C387.573 232.986 388.084 233.132 388.577 233.426L387.855 235.459C387.462 235.205 387.097 235.078 386.759 235.078C386.433 235.078 386.156 235.169 385.929 235.352C385.702 235.529 385.522 235.852 385.389 236.323C385.262 236.793 385.199 237.778 385.199 239.278V242ZM388.643 242V239.668H390.976V242H388.643ZM392.354 233.185H393.649V232.521C393.649 231.779 393.726 231.226 393.881 230.861C394.042 230.496 394.332 230.2 394.753 229.973C395.179 229.74 395.716 229.624 396.363 229.624C397.027 229.624 397.677 229.724 398.314 229.923L397.998 231.55C397.628 231.461 397.271 231.417 396.928 231.417C396.59 231.417 396.346 231.497 396.197 231.658C396.053 231.813 395.981 232.114 395.981 232.562V233.185H397.724V235.02H395.981V242H393.649V235.02H392.354V233.185ZM399.036 231.99V229.832H401.368V231.99H399.036ZM399.036 242V233.185H401.368V242H399.036Z" fill="black"/>
<g clip-path="url(#clip1_378_477)">
<mask id="mask0_378_477" style="mask-type:luminance" maskUnits="userSpaceOnUse" x="29" y="23" width="63" height="63">
<path d="M91.4048 23.3081L29.5326 23.0342L29.2587 84.9063L91.1309 85.1802L91.4048 23.3081Z" fill="white"/>
</mask>
<g mask="url(#mask0_378_477)">
<path d="M72.6787 60.3496L89.1785 60.4228L89.1421 68.6727L72.6422 68.5996L72.6787 60.3496Z" fill="white"/>
<path d="M72.7243 50.0377L89.2242 50.1108L89.1876 58.3606L72.6878 58.2876L72.7243 50.0377Z" fill="white"/>
<path d="M72.6102 75.8178L82.9226 75.8635C84.3835 75.8672 85.7985 75.3544 86.918 74.416C88.0373 73.4774 88.789 72.1734 89.0401 70.7342L72.6331 70.6616L72.6102 75.8178Z" fill="white"/>
<path d="M47.8619 75.7082L47.8847 70.5521L31.4777 70.4794C31.716 71.9207 32.456 73.2313 33.5671 74.1797C34.6781 75.1281 36.0886 75.6534 37.5494 75.6626L47.8619 75.7082Z" fill="white"/>
<path d="M31.5219 39.5431L48.0218 39.6161L47.9852 47.8661L31.4854 47.7931L31.5219 39.5431Z" fill="white"/>
<path d="M31.4763 49.855L47.9761 49.9281L47.9396 58.178L31.4397 58.105L31.4763 49.855Z" fill="white"/>
<path d="M31.4306 60.1671L47.9304 60.2402L47.8939 68.4901L31.3941 68.417L31.4306 60.1671Z" fill="white"/>
<path d="M48.0308 37.5541L48.0537 32.3978L37.7412 32.3522C36.2804 32.3484 34.8653 32.8612 33.7458 33.7998C32.6265 34.7382 31.8748 36.0424 31.6238 37.4814L48.0308 37.5541Z" fill="white"/>
<path d="M50.1156 32.4063L49.9238 75.7168L70.5479 75.8081L70.662 50.028C70.6645 49.4811 70.884 48.9574 71.2726 48.5724C71.661 48.1872 72.1866 47.9724 72.7335 47.9747L89.2328 48.0477L89.2693 39.7982L72.77 39.7251C72.2231 39.7227 71.6994 39.5031 71.3144 39.1146C70.9294 38.7262 70.7144 38.2006 70.7168 37.6536L70.7396 32.4976L50.1156 32.4063Z" fill="white"/>
<path d="M83.1144 32.5526L72.802 32.5069L72.7791 37.6631L89.1862 37.7357C88.9479 36.2945 88.2078 34.9838 87.0968 34.0354C85.9857 33.0869 84.5752 32.5617 83.1144 32.5526Z" fill="white"/>
</g>
</g>
<path d="M34.624 234.4H31.912V226.012H34.624C35.336 226.012 35.928 226.192 36.4 226.552C36.872 226.912 37.224 227.408 37.456 228.04C37.696 228.664 37.816 229.384 37.816 230.2C37.816 231.016 37.696 231.74 37.456 232.372C37.224 233.004 36.872 233.5 36.4 233.86C35.928 234.22 35.336 234.4 34.624 234.4ZM33.028 226.996V233.416H34.432C35.216 233.416 35.78 233.132 36.124 232.564C36.476 231.988 36.652 231.204 36.652 230.212C36.652 229.212 36.476 228.428 36.124 227.86C35.78 227.284 35.216 226.996 34.432 226.996H33.028ZM47.91 234.4L47.166 231.892H44.274L43.53 234.4H42.378L45.03 226.012H46.434L49.074 234.4H47.91ZM44.55 230.956H46.89L45.714 227.02L44.55 230.956ZM58.5079 226.012H59.5399V234.4H58.2919L54.9919 227.692H54.9799V234.4H53.9479V226.012H55.1599L58.4959 232.78H58.5079V226.012ZM65.4219 234.4V233.464H67.1979V226.948H65.4219V226.012H70.1139V226.948H68.3259V233.464H70.1139V234.4H65.4219ZM81.1439 230.596H77.5439V233.416H81.5399V234.4H76.4279V226.012H81.3239V226.996H77.5439V229.612H81.1439V230.596ZM87.5778 226.012H88.6938V233.416H92.6898V234.4H87.5778V226.012Z" fill="black"/>
<path d="M112.438 230.596H108.958V234.4H107.842V226.012H113.014V226.996H108.958V229.612H112.438V230.596ZM121.116 225.82C122.148 225.82 122.948 226.208 123.516 226.984C124.092 227.752 124.38 228.832 124.38 230.224C124.38 231.616 124.092 232.696 123.516 233.464C122.948 234.232 122.148 234.616 121.116 234.616C120.084 234.616 119.28 234.232 118.704 233.464C118.136 232.696 117.852 231.616 117.852 230.224C117.852 228.832 118.136 227.752 118.704 226.984C119.28 226.208 120.084 225.82 121.116 225.82ZM121.116 226.804C120.46 226.804 119.944 227.108 119.568 227.716C119.2 228.316 119.016 229.152 119.016 230.224C119.016 231.288 119.2 232.124 119.568 232.732C119.944 233.332 120.46 233.632 121.116 233.632C121.78 233.632 122.296 233.332 122.664 232.732C123.032 232.124 123.216 231.288 123.216 230.224C123.216 229.152 123.032 228.316 122.664 227.716C122.296 227.108 121.78 226.804 121.116 226.804ZM132.458 230.956H130.646V234.4H129.554V226.012H132.494C133.302 226.012 133.95 226.2 134.438 226.576C134.926 226.952 135.17 227.528 135.17 228.304C135.17 228.792 135.062 229.204 134.846 229.54C134.63 229.868 134.274 230.156 133.778 230.404C134.074 230.524 134.302 230.656 134.462 230.8C134.622 230.944 134.738 231.14 134.81 231.388C134.882 231.628 134.93 231.952 134.954 232.36L134.99 232.984C135.006 233.184 135.038 233.392 135.086 233.608C135.134 233.824 135.246 233.996 135.422 234.124V234.4H134.186C134.098 234.216 134.022 234.004 133.958 233.764C133.902 233.524 133.874 233.268 133.874 232.996V232.468C133.874 231.972 133.762 231.596 133.538 231.34C133.314 231.084 132.954 230.956 132.458 230.956ZM130.646 226.96V230.008H132.278C132.822 230.008 133.25 229.892 133.562 229.66C133.874 229.42 134.03 229.008 134.03 228.424C134.03 227.912 133.874 227.54 133.562 227.308C133.258 227.076 132.83 226.96 132.278 226.96H130.646ZM145.516 230.596H141.916V233.416H145.912V234.4H140.8V226.012H145.696V226.996H141.916V229.612H145.516V230.596ZM153.714 232L152.178 227.764V234.4H151.23V226.012H152.478L154.182 230.836L155.886 226.012H157.11V234.4H156.162V227.752L154.65 232H153.714ZM167.372 234.4L166.628 231.892H163.736L162.992 234.4H161.84L164.492 226.012H165.896L168.536 234.4H167.372ZM164.012 230.956H166.352L165.176 227.02L164.012 230.956ZM177.97 226.012H179.002V234.4H177.754L174.454 227.692H174.442V234.4H173.41V226.012H174.622L177.958 232.78H177.97V226.012Z" fill="black"/>
<path d="M45.26 160.4L41.74 154.74L38.22 160.4H36.08L40.76 153.24L36.4 146.42H38.58L41.84 151.68L45.08 146.42H47.2L42.82 153.18L47.44 160.4H45.26ZM63.6233 160.4L60.1033 154.74L56.5833 160.4H54.4433L59.1233 153.24L54.7633 146.42H56.9433L60.2033 151.68L63.4433 146.42H65.5633L61.1833 153.18L65.8033 160.4H63.6233ZM81.9866 160.4L78.4666 154.74L74.9466 160.4H72.8066L77.4866 153.24L73.1266 146.42H75.3066L78.5666 151.68L81.8066 146.42H83.9266L79.5466 153.18L84.1666 160.4H81.9866ZM100.35 160.4L96.8299 154.74L93.3099 160.4H91.1699L95.8499 153.24L91.4899 146.42H93.6699L96.9299 151.68L100.17 146.42H102.29L97.9099 153.18L102.53 160.4H100.35ZM137.076 160.4L133.556 154.74L130.036 160.4H127.896L132.576 153.24L128.216 146.42H130.396L133.656 151.68L136.896 146.42H139.016L134.636 153.18L139.256 160.4H137.076ZM155.44 160.4L151.92 154.74L148.4 160.4H146.26L150.94 153.24L146.58 146.42H148.76L152.02 151.68L155.26 146.42H157.38L153 153.18L157.62 160.4H155.44ZM173.803 160.4L170.283 154.74L166.763 160.4H164.623L169.303 153.24L164.943 146.42H167.123L170.383 151.68L173.623 146.42H175.743L171.363 153.18L175.983 160.4H173.803ZM192.166 160.4L188.646 154.74L185.126 160.4H182.986L187.666 153.24L183.306 146.42H185.486L188.746 151.68L191.986 146.42H194.106L189.726 153.18L194.346 160.4H192.166ZM228.893 160.4L225.373 154.74L221.853 160.4H219.713L224.393 153.24L220.033 146.42H222.213L225.473 151.68L228.713 146.42H230.833L226.453 153.18L231.073 160.4H228.893ZM247.256 160.4L243.736 154.74L240.216 160.4H238.076L242.756 153.24L238.396 146.42H240.576L243.836 151.68L247.076 146.42H249.196L244.816 153.18L249.436 160.4H247.256ZM265.619 160.4L262.099 154.74L258.579 160.4H256.439L261.119 153.24L256.759 146.42H258.939L262.199 151.68L265.439 146.42H267.559L263.179 153.18L267.799 160.4H265.619ZM283.983 160.4L280.463 154.74L276.943 160.4H274.803L279.483 153.24L275.123 146.42H277.303L280.563 151.68L283.803 146.42H285.923L281.543 153.18L286.163 160.4H283.983ZM320.709 160.4L317.189 154.74L313.669 160.4H311.529L316.209 153.24L311.849 146.42H314.029L317.289 151.68L320.529 146.42H322.649L318.269 153.18L322.889 160.4H320.709ZM339.073 160.4L335.553 154.74L332.033 160.4H329.893L334.573 153.24L330.213 146.42H332.393L335.653 151.68L338.893 146.42H341.013L336.633 153.18L341.253 160.4H339.073ZM357.436 160.4L353.916 154.74L350.396 160.4H348.256L352.936 153.24L348.576 146.42H350.756L354.016 151.68L357.256 146.42H359.376L354.996 153.18L359.616 160.4H357.436ZM375.799 160.4L372.279 154.74L368.759 160.4H366.619L371.299 153.24L366.939 146.42H369.119L372.379 151.68L375.619 146.42H377.739L373.359 153.18L377.979 160.4H375.799Z" fill="black"/>
<defs>
<radialGradient id="paint0_radial_378_477" cx="0" cy="0" r="1" gradientUnits="userSpaceOnUse" gradientTransform="translate(210 132.5) scale(210 132.5)">
<stop stop-color="#FFC23E"/>
<stop offset="1" stop-color="#997425"/>
</radialGradient>
<clipPath id="clip0_378_477">
<rect width="34.9982" height="34.9982" fill="white" transform="translate(309.83 213.72) rotate(22)"/>
</clipPath>
<clipPath id="clip1_378_477">
<rect width="80.9971" height="80.9971" fill="white" transform="translate(38.12 1.77979) rotate(22)"/>
</clipPath>
</defs>
</svg>
