<svg width="160" height="163" viewBox="0 0 160 163" fill="none" xmlns="http://www.w3.org/2000/svg">
<mask id="mask0_378_286" style="mask-type:luminance" maskUnits="userSpaceOnUse" x="-2" y="0" width="164" height="163">
<path d="M161.2 0H-1.20001V162.4H161.2V0Z" fill="white"/>
</mask>
<g mask="url(#mask0_378_286)">
<path d="M84.6404 15.4212C91.7884 14.2443 98.5475 19.0923 99.7245 26.2403C100.901 33.3883 96.0534 40.1474 88.9054 41.3244C81.7574 42.5013 74.9982 37.6533 73.8213 30.5053C72.6444 23.3573 77.4924 16.5981 84.6404 15.4212Z" fill="#FFC23F"/>
<path d="M93.317 40.1105C97.7777 39.6528 101.849 42.926 101.4 47.3886C101.146 49.9167 100.654 52.4227 99.9226 54.8691C98.413 59.9174 95.919 64.6199 92.5927 68.7063C89.2665 72.7926 85.1703 76.1833 80.5333 78.6855C75.8963 81.1877 70.8087 82.748 65.5679 83.2856C60.3264 83.8234 55.0386 83.324 49.9906 81.8153C44.9423 80.3057 40.2423 77.8194 36.1559 74.4932C32.0695 71.1669 28.6762 67.0622 26.1742 62.426C24.9616 60.1787 23.9652 57.829 23.2034 55.4051C21.8586 51.1268 25.1815 47.102 29.6422 46.6443C40.2534 45.5557 50.8672 44.4621 61.4784 43.3735C72.0895 42.285 82.7058 41.1991 93.317 40.1105Z" fill="#6A6A6C"/>
<path d="M141.765 88.6068C148.031 88.9855 152.899 94.4094 151.49 100.528C150.329 105.569 148.598 110.48 146.323 115.153C142.384 123.243 136.891 130.475 130.156 136.442C123.422 142.408 115.578 146.992 107.073 149.927C98.5672 152.862 89.567 154.09 80.5857 153.547C71.6043 153.004 62.8149 150.7 54.7247 146.761C46.6345 142.822 39.403 137.328 33.4358 130.593C27.4688 123.858 22.8859 116.015 19.9509 107.511C18.2557 102.597 17.1259 97.5111 16.5812 92.3671C15.9205 86.1235 21.4078 81.3294 27.675 81.7083C46.6906 82.8582 65.7094 84.0047 84.7249 85.1545C103.74 86.3044 122.75 87.4569 141.765 88.6068Z" fill="white"/>
</g>
</svg>
