<svg width="160" height="163" viewBox="0 0 160 163" fill="none" xmlns="http://www.w3.org/2000/svg">
<mask id="mask0_378_247" style="mask-type:luminance" maskUnits="userSpaceOnUse" x="-2" y="0" width="164" height="163">
<path d="M161.2 0H-1.2V162.4H161.2V0Z" fill="white"/>
</mask>
<g mask="url(#mask0_378_247)">
<path d="M21.9755 49.834C22.1549 46.2506 25.2048 43.4914 28.7881 43.6709C30.7889 43.7708 32.7962 43.8714 34.7969 43.9713C34.4007 51.8875 33.9996 59.8061 33.6033 67.7223C31.6025 67.6224 29.6034 67.5218 27.6026 67.4219C24.0193 67.2424 21.2601 64.1926 21.4395 60.6092C21.619 57.0177 21.796 53.4254 21.9755 49.834Z" fill="#6A6A6C"/>
<path d="M21.7635 101.736C21.943 98.1525 24.9928 95.3933 28.5762 95.5727C30.577 95.6726 32.5842 95.7733 34.585 95.8732C34.1887 103.789 33.7876 111.708 33.3914 119.624C31.3906 119.524 29.3914 119.424 27.3907 119.324C23.8073 119.144 21.0481 116.094 21.2276 112.511C21.407 108.92 21.5841 105.327 21.7635 101.736Z" fill="#6A6A6C"/>
<path d="M30.3541 33.3165C30.5758 28.1002 34.8696 23.9866 40.09 23.9866C68.9282 23.9866 97.7623 23.9866 126.6 23.9866C131.839 23.9866 136.138 28.131 136.336 33.3652C137.534 65.0112 138.736 96.6581 139.934 128.304C140.143 133.827 135.723 138.414 130.198 138.414C98.8171 138.414 67.4349 138.414 36.0543 138.414C30.5108 138.414 26.083 133.794 26.3185 128.255C27.6631 96.6094 29.0094 64.9625 30.3541 33.3165Z" fill="white"/>
<path d="M41.4042 73.8807C40.8443 76.9174 41.2079 79.1634 44.2447 79.7232C69.4757 84.3748 94.7067 89.0205 119.938 93.672C122.974 94.2319 124.067 91.8924 124.627 88.8556C125.186 85.8189 125 83.2437 121.963 82.6839C96.7324 78.0323 71.5036 73.3753 46.2725 68.7238C43.2363 68.1646 42.0665 70.2913 41.5062 73.3274L41.4042 73.8807Z" fill="#6A6A6C"/>
<path d="M58.7928 46.5399C56.2497 48.2913 54.9187 50.1365 56.6701 52.6797C71.222 73.8099 85.778 94.9359 100.33 116.066C102.081 118.609 104.508 117.727 107.051 115.976C109.594 114.224 111.284 112.272 109.532 109.729C94.9802 88.5985 80.4337 67.466 65.8818 46.3358C64.1302 43.7934 61.7993 44.4701 59.2563 46.2207L58.7928 46.5399Z" fill="#6A6A6C"/>
<path d="M90.4213 39.5025C87.3846 38.9426 85.1387 39.3062 84.5788 42.3429C79.9273 67.574 75.2816 92.805 70.63 118.036C70.0702 121.073 72.4097 122.165 75.4464 122.725C78.4831 123.285 81.0583 123.098 81.6182 120.062C86.2697 94.8307 90.9267 69.6018 95.5783 44.3708C96.1375 41.3345 94.0107 40.1648 90.9747 39.6045L90.4213 39.5025Z" fill="#6A6A6C"/>
<path d="M117.762 56.8911C116.011 54.3479 114.165 53.0169 111.622 54.7683C90.4921 69.3202 69.3661 83.8762 48.2359 98.4281C45.6928 100.179 46.5748 102.606 48.3262 105.149C50.0776 107.692 52.0302 109.382 54.5733 107.63C75.7035 93.0784 96.836 78.5319 117.966 63.98C120.509 62.2285 119.832 59.8975 118.081 57.3545L117.762 56.8911Z" fill="#6A6A6C"/>
<path d="M83.1018 106.266C96.9448 106.266 108.168 95.0438 108.168 81.2C108.168 67.3562 96.9448 56.1335 83.1018 56.1335C69.258 56.1335 58.0354 67.3562 58.0354 81.2C58.0354 95.0438 69.258 106.266 83.1018 106.266Z" fill="#7C7C81"/>
<path d="M83.1018 95.199C90.8301 95.199 97.1008 88.9283 97.1008 81.2C97.1008 73.4717 90.8301 67.2104 83.1018 67.2104C75.3735 67.2104 69.1122 73.4717 69.1122 81.2C69.1122 88.9283 75.3735 95.199 83.1018 95.199Z" fill="#FFC23F"/>
</g>
</svg>
