<svg width="56" height="56" viewBox="0 0 56 56" fill="none" xmlns="http://www.w3.org/2000/svg">
<rect width="56" height="56" rx="16" fill="white"/>
<path opacity="0.4" d="M13.8333 25.5C13.143 25.5 12.5833 26.0596 12.5833 26.75L12.5833 30.5894C12.5833 33.6563 12.5833 36.0784 12.8238 37.9726C13.0703 39.9141 13.5887 41.4895 14.7687 42.739C15.9583 43.9985 17.4743 44.561 19.341 44.8268C21.1437 45.0834 23.443 45.0834 26.3276 45.0833H29.6724C32.557 45.0834 34.8564 45.0834 36.659 44.8268C38.5257 44.561 40.0417 43.9985 41.2313 42.739C42.4113 41.4895 42.9297 39.9141 43.1762 37.9726C43.4167 36.0784 43.4167 33.6563 43.4167 30.5894V26.75C43.4167 26.0596 42.857 25.5 42.1667 25.5H13.8333Z" fill="#141B34"/>
<path d="M13.6319 17.7001C14.1035 17.5823 14.6543 17.5828 15.3145 17.5833H40.6826C41.3429 17.5828 41.8937 17.5823 42.3653 17.7001C43.7137 18.0372 44.8178 19.0929 45.0473 20.502C45.1266 20.9893 45.0503 21.5331 44.9701 22.1045C44.7795 23.4763 44.6756 24.9251 44.1447 26.2176C43.0305 28.9298 40.5167 30.8945 37.517 31.5299C36.643 31.7151 35.6625 31.7447 34.2017 31.7493C33.8683 31.7503 33.7017 31.7509 33.6036 31.653C33.5056 31.5552 33.5058 31.3809 33.5062 31.0322C33.5065 30.7241 33.4986 30.4156 33.4987 30.1089C33.5004 29.7293 33.5028 29.1788 33.3678 28.6747C33.0133 27.3519 31.98 26.3186 30.6572 25.9641C30.1525 25.8289 29.6278 25.8319 29.1095 25.8335H26.8873C26.369 25.8319 25.8442 25.8289 25.3396 25.9641C24.0167 26.3186 22.9834 27.3519 22.629 28.6747C22.4939 29.1788 22.4964 29.7293 22.498 30.1089C22.4981 30.4156 22.4902 30.7241 22.4906 31.0322C22.4909 31.3809 22.4911 31.5552 22.3931 31.653C22.2951 31.7509 22.1284 31.7503 21.7951 31.7493C20.3345 31.7447 19.3541 31.7151 18.4801 31.5299C15.4804 30.8945 12.9667 28.9298 11.8525 26.2176C11.3215 24.9251 11.2177 23.4763 11.027 22.1045C10.9469 21.5331 10.8705 20.9893 10.9499 20.502C11.1794 19.0929 12.2834 18.0372 13.6319 17.7001Z" fill="#141B34"/>
<path fill-rule="evenodd" clip-rule="evenodd" d="M27.7144 10.5C27.903 10.5001 28.092 10.5001 28.2802 10.5C29.1974 10.4998 30.0848 10.4996 30.8318 10.6296C31.7123 10.7827 32.5234 11.1318 33.2079 11.8836C33.838 12.5756 34.1976 13.4329 34.4785 14.3531C34.7543 15.2563 35.0069 16.4113 35.3147 17.8186L35.4588 18.4772L32.2025 19.1895L32.0737 18.6008C31.7468 17.1064 31.5219 16.0847 31.2904 15.3264C31.0596 14.5701 30.8769 14.2746 30.7431 14.1277C30.6638 14.0405 30.5856 13.9701 30.2605 13.9136C29.8325 13.8391 29.2402 13.8334 28.1679 13.8334H27.8267C26.7544 13.8334 26.1621 13.8391 25.7341 13.9136C25.409 13.9701 25.3308 14.0405 25.2515 14.1277C25.1177 14.2746 24.935 14.5701 24.7042 15.3264C24.4726 16.0847 24.2478 17.1064 23.9209 18.6008L23.7921 19.1895L20.5358 18.4772L20.6799 17.8187C20.9877 16.4113 21.2403 15.2563 21.5161 14.3531C21.797 13.4329 22.1566 12.5756 22.7867 11.8836C23.4712 11.1318 24.2823 10.7827 25.1627 10.6296C25.9098 10.4996 26.7972 10.4998 27.7144 10.5Z" fill="#141B34"/>
<path d="M24.6667 30.2222C24.6667 29.7056 24.6667 29.4472 24.7234 29.2353C24.8776 28.6601 25.3268 28.2109 25.902 28.0568C26.1139 28 26.3722 28 26.8889 28H29.1111C29.6278 28 29.8861 28 30.098 28.0568C30.6732 28.2109 31.1224 28.6601 31.2765 29.2353C31.3333 29.4472 31.3333 29.7056 31.3333 30.2222V31.3333C31.3333 33.1743 29.8409 34.6667 28 34.6667C26.159 34.6667 24.6667 33.1743 24.6667 31.3333V30.2222Z" fill="#141B34"/>
</svg>
