<svg width="128" height="56" viewBox="0 0 128 56" fill="none" xmlns="http://www.w3.org/2000/svg">
<rect width="128" height="56" rx="16" fill="white"/>
<path opacity="0.4" d="M23.1294 12.0473C25.8868 9.42867 30.1132 9.42867 32.8706 12.0473C35.0039 14.0733 37.6179 16.8659 39.7062 20.0692C41.7851 23.2582 43.4167 26.9662 43.4167 30.7967C43.4167 38.2431 37.5709 45.9167 28 45.9167C18.4291 45.9167 12.5833 38.2431 12.5833 30.7967C12.5833 26.9662 14.2149 23.2582 16.2938 20.0692C18.3821 16.8659 20.9961 14.0733 23.1294 12.0473Z" fill="#141B34"/>
<path fill-rule="evenodd" clip-rule="evenodd" d="M28 36.3332C30.7614 36.3332 33 34.0947 33 31.3332C33 30.4128 33.7462 29.6666 34.6667 29.6666C35.5871 29.6666 36.3333 30.4128 36.3333 31.3332C36.3333 35.9356 32.6024 39.6666 28 39.6666C27.0795 39.6666 26.3333 38.9204 26.3333 37.9999C26.3333 37.0794 27.0795 36.3332 28 36.3332Z" fill="#141B34"/>
<path d="M59.52 34.5V20.4H61.58V32.58H68.12V34.5H59.52ZM70.357 34.5V24.5H72.317V34.5H70.357ZM70.017 21.8C70.017 21.06 70.597 20.48 71.357 20.48C72.077 20.48 72.677 21.06 72.677 21.8C72.677 22.54 72.077 23.14 71.357 23.14C70.597 23.14 70.017 22.54 70.017 21.8ZM84.4709 37.48H82.5109V32.58C82.0509 33.62 80.8509 34.62 79.1709 34.62C76.8109 34.62 74.7109 32.76 74.7109 29.48C74.7109 26.22 76.7909 24.32 79.1909 24.32C80.8909 24.32 82.1109 25.26 82.5309 26.26V25.68L82.7109 24.5H84.7109L84.4709 26.08V37.48ZM76.6709 29.5C76.6709 31.72 78.1109 32.92 79.7709 32.92C81.4909 32.92 82.5309 31.5 82.5309 30.94V27.9C82.5309 27.34 81.4509 26.02 79.7709 26.02C78.0909 26.02 76.6709 27.28 76.6709 29.5ZM95.8566 24.5V32.96L96.0966 34.5H94.1166L93.9366 33.46V32.46C93.5566 33.76 92.3566 34.72 90.5966 34.72C88.4766 34.72 87.1566 33.32 87.1566 31.04V24.5H89.1166V30.6C89.1166 31.78 89.6966 33.02 91.3166 33.02C92.9566 33.02 93.8966 31.72 93.8966 31.5V24.5H95.8566ZM98.6828 34.5V24.5H100.643V34.5H98.6828ZM98.3428 21.8C98.3428 21.06 98.9228 20.48 99.6828 20.48C100.403 20.48 101.003 21.06 101.003 21.8C101.003 22.54 100.403 23.14 99.6828 23.14C98.9228 23.14 98.3428 22.54 98.3428 21.8ZM107.377 34.68C104.977 34.68 102.897 32.76 102.897 29.5C102.897 26.24 104.997 24.38 107.357 24.38C109.037 24.38 110.237 25.36 110.697 26.4V21H112.657V32.9L112.897 34.5H110.897L110.717 33.3V32.72C110.297 33.72 109.077 34.68 107.377 34.68ZM104.857 29.5C104.857 31.7 106.277 32.98 107.957 32.98C109.637 32.98 110.717 31.64 110.717 31.08V28.04C110.717 27.48 109.677 26.06 107.957 26.06C106.297 26.06 104.857 27.26 104.857 29.5Z" fill="black"/>
</svg>
