<svg width="56" height="56" viewBox="0 0 56 56" fill="none" xmlns="http://www.w3.org/2000/svg">
<rect width="56" height="56" rx="16" fill="white"/>
<g opacity="0.4">
<path d="M36.0591 21.5211C40.0846 25.4175 42.8008 30.6358 43.7232 36.1588C44.1953 38.9861 43.1041 41.4672 41.2287 43.1999C39.3721 44.9153 36.7399 45.9165 33.9945 45.9165H22.0047C19.2594 45.9165 16.6271 44.9153 14.7705 43.1999C12.8952 41.4672 11.8039 38.9861 12.2761 36.1588C13.3929 29.4714 16.8665 24.4955 19.8967 21.5631C20.0508 21.414 20.205 21.2678 20.3786 21.1411C20.7536 20.8672 21.4242 20.5958 21.8841 20.5317C22.113 20.4998 22.2776 20.4998 22.6068 20.4998H33.3924C33.7216 20.4998 33.8862 20.4998 34.1151 20.5317C34.5751 20.5958 35.2456 20.8672 35.6207 21.1411C35.8073 21.2773 35.8913 21.3586 36.0591 21.5211Z" fill="#141B34"/>
</g>
<path fill-rule="evenodd" clip-rule="evenodd" d="M27.8547 26.4243C28.5451 26.4243 29.1047 26.984 29.1047 27.6743V27.864C30.1256 28.103 31.0379 28.6353 31.6327 29.4179C32.0504 29.9675 31.9436 30.7517 31.394 31.1695C30.8443 31.5872 30.0601 31.4803 29.6424 30.9307C29.3809 30.5867 28.7461 30.2209 27.8547 30.2209C27.2138 30.2209 26.6832 30.4142 26.3423 30.6657C26.001 30.9176 25.9163 31.1643 25.9163 31.3234C25.9163 31.6534 25.9997 31.7218 26.0893 31.7822C26.2847 31.9138 26.7759 32.0899 27.8547 32.0899C29.0846 32.0899 30.256 32.2584 31.1462 32.839C32.149 33.493 32.583 34.5197 32.583 35.6924C32.583 37.0028 31.9358 37.9829 30.9578 38.5704C30.4035 38.9033 29.7644 39.1007 29.1047 39.2034V39.341C29.1047 40.0313 28.5451 40.591 27.8547 40.591C27.1643 40.591 26.6047 40.0313 26.6047 39.341V39.1708C25.6981 38.9869 24.8715 38.6021 24.2444 38.0409C23.73 37.5805 23.6862 36.7903 24.1466 36.2759C24.607 35.7614 25.3972 35.7176 25.9116 36.178C26.2748 36.5031 26.9657 36.7949 27.8547 36.7949C28.7015 36.7949 29.3138 36.6416 29.6706 36.4273C29.9515 36.2585 30.083 36.0624 30.083 35.6924C30.083 35.1847 29.9372 35.0352 29.7805 34.933C29.5114 34.7575 28.9436 34.5899 27.8547 34.5899C26.6147 34.5899 25.5116 34.4074 24.6925 33.8556C23.7677 33.2325 23.4163 32.2927 23.4163 31.3234C23.4163 30.1832 24.0453 29.2537 24.858 28.6541C25.36 28.2837 25.9574 28.0149 26.6047 27.8635V27.6743C26.6047 26.984 27.1643 26.4243 27.8547 26.4243Z" fill="#141B34"/>
<path d="M25.7354 11.1772C26.1458 10.7654 26.9208 10.0832 27.9996 10.0832C29.0784 10.0832 29.8534 10.7654 30.2638 11.1772C30.7613 11.6765 31.1577 12.4227 31.7891 12.7567C32.3112 13.0328 32.9844 12.7646 33.5054 12.6289C34.0019 12.4997 34.7587 12.3039 35.5607 12.4107C35.9092 12.457 36.3665 12.5679 36.7208 12.8833C37.1404 13.2569 37.2081 13.7218 37.1467 14.0731C37.0721 14.5005 36.8074 14.8513 36.5475 15.1849L35.0603 17.0997C34.677 17.5945 34.2975 18.1031 33.7882 18.4771C33.4109 18.7542 32.9335 18.8332 32.4654 18.8332H23.5338C23.0657 18.8332 22.5883 18.7542 22.211 18.4771C21.7017 18.1031 21.3223 17.5945 20.9389 17.0997L19.4517 15.1849C19.1919 14.8513 18.9271 14.5005 18.8525 14.0731C18.7911 13.7218 18.8589 13.2569 19.2784 12.8833C19.6327 12.5679 20.09 12.457 20.4385 12.4107C21.2405 12.3039 21.9973 12.4997 22.4939 12.6289C23.0149 12.7646 23.6881 13.0328 24.2101 12.7567C24.8415 12.4227 25.2379 11.6765 25.7354 11.1772Z" fill="#141B34"/>
</svg>
