<svg width="56" height="56" viewBox="0 0 56 56" fill="none" xmlns="http://www.w3.org/2000/svg">
<rect width="56" height="56" rx="16" fill="white"/>
<path opacity="0.4" d="M9.74727 11.4139C9.74727 11.4139 8.75986 22.2756 13.6969 27.2127C14.5757 28.0307 18 30.3333 24.6667 29.6667C25.7157 28.8025 27.8324 25.5 27.9069 22.537C28.2876 19.9983 27.5005 17.3182 25.546 15.3636C20.6089 10.4265 9.74727 11.4139 9.74727 11.4139Z" fill="black"/>
<path opacity="0.4" d="M32.1667 30.5C29.6921 27.8107 30.7327 22.2393 33.3411 19.6308C37.3806 15.5914 46.2674 16.3993 46.2674 16.3993C46.2674 16.3993 47.0753 25.2861 43.0358 29.3256C38.8334 33 34.0173 30.5786 32.1667 30.5Z" fill="black"/>
<path d="M38 24.6667C38 24.6667 28 31.3333 28 43C28 28 18 19.6667 18 19.6667" stroke="black" stroke-width="1.5" stroke-linecap="round" stroke-linejoin="round"/>
</svg>
